<mxfile host="app.diagrams.net" modified="2023-06-19T17:26:33.875Z" agent="Mozilla/5.0 (Windows NT 10.0; Win64; x64) AppleWebKit/537.36 (KHTML, like Gecko) Chrome/114.0.0.0 Safari/537.36" etag="Z5p7f88nWyVhXrpyZvhU" version="21.5.0" type="device">
  <diagram name="Halaman-1" id="KZC1TCKTkCGYBTOJZr2n">
    <mxGraphModel dx="1509" dy="767" grid="1" gridSize="10" guides="1" tooltips="1" connect="1" arrows="1" fold="1" page="1" pageScale="1" pageWidth="827" pageHeight="1169" math="0" shadow="0">
      <root>
        <mxCell id="0" />
        <mxCell id="1" parent="0" />
        <mxCell id="oi16Dz3fYDe41koma9XC-1" value="Activity Diagram Mengelola Fasilitas Rs" style="swimlane;childLayout=stackLayout;resizeParent=1;resizeParentMax=0;startSize=20;html=1;" vertex="1" parent="1">
          <mxGeometry x="220.00000000000045" y="150" width="625" height="940" as="geometry" />
        </mxCell>
        <mxCell id="oi16Dz3fYDe41koma9XC-2" value="Owner Rumah Sakit" style="swimlane;startSize=20;html=1;" vertex="1" parent="oi16Dz3fYDe41koma9XC-1">
          <mxGeometry y="20" width="370" height="920" as="geometry" />
        </mxCell>
        <mxCell id="oi16Dz3fYDe41koma9XC-17" value="Memilih menu data rumah sakit" style="rounded=1;whiteSpace=wrap;html=1;arcSize=40;fontColor=#000000;fillColor=default;strokeColor=default;" vertex="1" parent="oi16Dz3fYDe41koma9XC-2">
          <mxGeometry x="119.99999999999955" y="100" width="120" height="40" as="geometry" />
        </mxCell>
        <mxCell id="oi16Dz3fYDe41koma9XC-21" value="Menekan tombol fasilitas pada rumah sakit" style="rounded=1;whiteSpace=wrap;html=1;arcSize=40;fontColor=#000000;fillColor=default;strokeColor=default;" vertex="1" parent="oi16Dz3fYDe41koma9XC-2">
          <mxGeometry x="119.99999999999955" y="170" width="120" height="40" as="geometry" />
        </mxCell>
        <mxCell id="oi16Dz3fYDe41koma9XC-6" value="" style="ellipse;html=1;shape=startState;fillColor=#000000;strokeColor=#ff0000;" vertex="1" parent="oi16Dz3fYDe41koma9XC-2">
          <mxGeometry x="159.99999999999955" y="30" width="30" height="30" as="geometry" />
        </mxCell>
        <mxCell id="oi16Dz3fYDe41koma9XC-7" value="" style="edgeStyle=orthogonalEdgeStyle;html=1;verticalAlign=bottom;endArrow=open;endSize=8;strokeColor=default;rounded=0;" edge="1" source="oi16Dz3fYDe41koma9XC-6" parent="oi16Dz3fYDe41koma9XC-2">
          <mxGeometry relative="1" as="geometry">
            <mxPoint x="174.99999999999955" y="100" as="targetPoint" />
          </mxGeometry>
        </mxCell>
        <mxCell id="oi16Dz3fYDe41koma9XC-28" value="menekan checkbox" style="rounded=1;whiteSpace=wrap;html=1;arcSize=40;fontColor=#000000;fillColor=default;strokeColor=default;" vertex="1" parent="oi16Dz3fYDe41koma9XC-2">
          <mxGeometry x="27.5" y="260" width="95" height="30" as="geometry" />
        </mxCell>
        <mxCell id="oi16Dz3fYDe41koma9XC-27" value="menekan tombol edit" style="rounded=1;whiteSpace=wrap;html=1;arcSize=40;fontColor=#000000;fillColor=default;strokeColor=default;" vertex="1" parent="oi16Dz3fYDe41koma9XC-2">
          <mxGeometry x="127.5" y="260" width="95" height="30" as="geometry" />
        </mxCell>
        <mxCell id="oi16Dz3fYDe41koma9XC-30" value="menekan tombol tambah" style="rounded=1;whiteSpace=wrap;html=1;arcSize=40;fontColor=#000000;fillColor=default;strokeColor=default;" vertex="1" parent="oi16Dz3fYDe41koma9XC-2">
          <mxGeometry x="227.5" y="260" width="95" height="30" as="geometry" />
        </mxCell>
        <mxCell id="oi16Dz3fYDe41koma9XC-32" value="" style="endArrow=none;html=1;rounded=0;" edge="1" parent="oi16Dz3fYDe41koma9XC-2">
          <mxGeometry width="50" height="50" relative="1" as="geometry">
            <mxPoint x="69.99999999999955" y="240" as="sourcePoint" />
            <mxPoint x="279.99999999999955" y="240" as="targetPoint" />
          </mxGeometry>
        </mxCell>
        <mxCell id="oi16Dz3fYDe41koma9XC-35" value="" style="endArrow=classic;html=1;rounded=0;entryX=0.554;entryY=0.021;entryDx=0;entryDy=0;entryPerimeter=0;" edge="1" parent="oi16Dz3fYDe41koma9XC-2" target="oi16Dz3fYDe41koma9XC-30">
          <mxGeometry width="50" height="50" relative="1" as="geometry">
            <mxPoint x="279.99999999999955" y="240" as="sourcePoint" />
            <mxPoint x="276.0200000000001" y="260" as="targetPoint" />
          </mxGeometry>
        </mxCell>
        <mxCell id="oi16Dz3fYDe41koma9XC-41" value="Melengkapi form tambah data" style="rounded=1;whiteSpace=wrap;html=1;arcSize=40;fontColor=#000000;fillColor=default;strokeColor=default;" vertex="1" parent="oi16Dz3fYDe41koma9XC-2">
          <mxGeometry x="227.5" y="320" width="95" height="30" as="geometry" />
        </mxCell>
        <mxCell id="oi16Dz3fYDe41koma9XC-43" value="menekan tombol back" style="rounded=1;whiteSpace=wrap;html=1;arcSize=40;fontColor=#000000;fillColor=default;strokeColor=default;" vertex="1" parent="oi16Dz3fYDe41koma9XC-2">
          <mxGeometry x="170" y="390" width="95" height="30" as="geometry" />
        </mxCell>
        <mxCell id="oi16Dz3fYDe41koma9XC-52" style="edgeStyle=orthogonalEdgeStyle;rounded=0;orthogonalLoop=1;jettySize=auto;html=1;" edge="1" parent="oi16Dz3fYDe41koma9XC-2" source="oi16Dz3fYDe41koma9XC-44">
          <mxGeometry relative="1" as="geometry">
            <mxPoint x="399.99999999999955" y="405" as="targetPoint" />
          </mxGeometry>
        </mxCell>
        <mxCell id="oi16Dz3fYDe41koma9XC-44" value="menekan tombol submit" style="rounded=1;whiteSpace=wrap;html=1;arcSize=40;fontColor=#000000;fillColor=default;strokeColor=default;" vertex="1" parent="oi16Dz3fYDe41koma9XC-2">
          <mxGeometry x="270" y="390" width="95" height="30" as="geometry" />
        </mxCell>
        <mxCell id="oi16Dz3fYDe41koma9XC-45" value="" style="endArrow=none;html=1;rounded=0;" edge="1" parent="oi16Dz3fYDe41koma9XC-2">
          <mxGeometry width="50" height="50" relative="1" as="geometry">
            <mxPoint x="219.99999999999955" y="370" as="sourcePoint" />
            <mxPoint x="329.99999999999955" y="370" as="targetPoint" />
          </mxGeometry>
        </mxCell>
        <mxCell id="oi16Dz3fYDe41koma9XC-60" style="edgeStyle=orthogonalEdgeStyle;rounded=0;orthogonalLoop=1;jettySize=auto;html=1;" edge="1" parent="oi16Dz3fYDe41koma9XC-2" target="oi16Dz3fYDe41koma9XC-59">
          <mxGeometry relative="1" as="geometry">
            <mxPoint x="149.99999999999955" y="280" as="sourcePoint" />
            <mxPoint x="437.49999999999955" y="490" as="targetPoint" />
            <Array as="points">
              <mxPoint x="150" y="500" />
            </Array>
          </mxGeometry>
        </mxCell>
        <mxCell id="oi16Dz3fYDe41koma9XC-61" value="Melengkapi form tambah data" style="rounded=1;whiteSpace=wrap;html=1;arcSize=40;fontColor=#000000;fillColor=default;strokeColor=default;" vertex="1" parent="oi16Dz3fYDe41koma9XC-2">
          <mxGeometry x="227.5" y="550" width="95" height="30" as="geometry" />
        </mxCell>
        <mxCell id="oi16Dz3fYDe41koma9XC-62" value="menekan tombol back" style="rounded=1;whiteSpace=wrap;html=1;arcSize=40;fontColor=#000000;fillColor=default;strokeColor=default;" vertex="1" parent="oi16Dz3fYDe41koma9XC-2">
          <mxGeometry x="170" y="610" width="95" height="30" as="geometry" />
        </mxCell>
        <mxCell id="oi16Dz3fYDe41koma9XC-63" value="menekan tombol submit" style="rounded=1;whiteSpace=wrap;html=1;arcSize=40;fontColor=#000000;fillColor=default;strokeColor=default;" vertex="1" parent="oi16Dz3fYDe41koma9XC-2">
          <mxGeometry x="270" y="610" width="95" height="30" as="geometry" />
        </mxCell>
        <mxCell id="oi16Dz3fYDe41koma9XC-64" value="" style="endArrow=none;html=1;rounded=0;" edge="1" parent="oi16Dz3fYDe41koma9XC-2">
          <mxGeometry width="50" height="50" relative="1" as="geometry">
            <mxPoint x="219.99999999999955" y="590" as="sourcePoint" />
            <mxPoint x="329.99999999999955" y="590" as="targetPoint" />
          </mxGeometry>
        </mxCell>
        <mxCell id="oi16Dz3fYDe41koma9XC-65" value="" style="endArrow=classic;html=1;rounded=0;entryX=0.523;entryY=-0.027;entryDx=0;entryDy=0;entryPerimeter=0;" edge="1" parent="oi16Dz3fYDe41koma9XC-2" target="oi16Dz3fYDe41koma9XC-62">
          <mxGeometry width="50" height="50" relative="1" as="geometry">
            <mxPoint x="219.99999999999955" y="590" as="sourcePoint" />
            <mxPoint x="369.99999999999955" y="570" as="targetPoint" />
          </mxGeometry>
        </mxCell>
        <mxCell id="oi16Dz3fYDe41koma9XC-66" value="" style="endArrow=classic;html=1;rounded=0;entryX=0.632;entryY=0.017;entryDx=0;entryDy=0;entryPerimeter=0;" edge="1" parent="oi16Dz3fYDe41koma9XC-2" target="oi16Dz3fYDe41koma9XC-63">
          <mxGeometry width="50" height="50" relative="1" as="geometry">
            <mxPoint x="329.99999999999955" y="590" as="sourcePoint" />
            <mxPoint x="369.99999999999955" y="570" as="targetPoint" />
          </mxGeometry>
        </mxCell>
        <mxCell id="oi16Dz3fYDe41koma9XC-84" value="menekan tombol hapus data" style="rounded=1;whiteSpace=wrap;html=1;arcSize=40;fontColor=#000000;fillColor=default;strokeColor=default;" vertex="1" parent="oi16Dz3fYDe41koma9XC-2">
          <mxGeometry x="210" y="755" width="95" height="30" as="geometry" />
        </mxCell>
        <mxCell id="oi16Dz3fYDe41koma9XC-14" value="" style="edgeStyle=orthogonalEdgeStyle;rounded=0;orthogonalLoop=1;jettySize=auto;html=1;" edge="1" parent="oi16Dz3fYDe41koma9XC-1" target="oi16Dz3fYDe41koma9XC-13">
          <mxGeometry relative="1" as="geometry">
            <mxPoint x="174.99999999999955" y="140" as="sourcePoint" />
          </mxGeometry>
        </mxCell>
        <mxCell id="oi16Dz3fYDe41koma9XC-19" value="" style="edgeStyle=orthogonalEdgeStyle;rounded=0;orthogonalLoop=1;jettySize=auto;html=1;" edge="1" parent="oi16Dz3fYDe41koma9XC-1" source="oi16Dz3fYDe41koma9XC-17" target="oi16Dz3fYDe41koma9XC-18">
          <mxGeometry relative="1" as="geometry" />
        </mxCell>
        <mxCell id="oi16Dz3fYDe41koma9XC-23" value="" style="edgeStyle=orthogonalEdgeStyle;rounded=0;orthogonalLoop=1;jettySize=auto;html=1;" edge="1" parent="oi16Dz3fYDe41koma9XC-1" source="oi16Dz3fYDe41koma9XC-21" target="oi16Dz3fYDe41koma9XC-22">
          <mxGeometry relative="1" as="geometry" />
        </mxCell>
        <mxCell id="oi16Dz3fYDe41koma9XC-25" style="edgeStyle=orthogonalEdgeStyle;rounded=0;orthogonalLoop=1;jettySize=auto;html=1;entryX=0.448;entryY=-0.019;entryDx=0;entryDy=0;entryPerimeter=0;" edge="1" parent="oi16Dz3fYDe41koma9XC-1" source="oi16Dz3fYDe41koma9XC-18" target="oi16Dz3fYDe41koma9XC-21">
          <mxGeometry relative="1" as="geometry">
            <Array as="points">
              <mxPoint x="380" y="170" />
              <mxPoint x="114" y="170" />
            </Array>
          </mxGeometry>
        </mxCell>
        <mxCell id="oi16Dz3fYDe41koma9XC-40" value="" style="edgeStyle=orthogonalEdgeStyle;rounded=0;orthogonalLoop=1;jettySize=auto;html=1;" edge="1" parent="oi16Dz3fYDe41koma9XC-1" source="oi16Dz3fYDe41koma9XC-30" target="oi16Dz3fYDe41koma9XC-39">
          <mxGeometry relative="1" as="geometry" />
        </mxCell>
        <mxCell id="oi16Dz3fYDe41koma9XC-49" style="edgeStyle=orthogonalEdgeStyle;rounded=0;orthogonalLoop=1;jettySize=auto;html=1;entryX=1;entryY=0.5;entryDx=0;entryDy=0;" edge="1" parent="oi16Dz3fYDe41koma9XC-1" source="oi16Dz3fYDe41koma9XC-43" target="oi16Dz3fYDe41koma9XC-22">
          <mxGeometry relative="1" as="geometry">
            <Array as="points">
              <mxPoint x="218" y="490" />
              <mxPoint x="570" y="490" />
              <mxPoint x="570" y="210" />
            </Array>
          </mxGeometry>
        </mxCell>
        <mxCell id="oi16Dz3fYDe41koma9XC-68" style="edgeStyle=orthogonalEdgeStyle;rounded=0;orthogonalLoop=1;jettySize=auto;html=1;entryX=0.5;entryY=0;entryDx=0;entryDy=0;" edge="1" parent="oi16Dz3fYDe41koma9XC-1" source="oi16Dz3fYDe41koma9XC-59" target="oi16Dz3fYDe41koma9XC-61">
          <mxGeometry relative="1" as="geometry">
            <Array as="points">
              <mxPoint x="497" y="550" />
              <mxPoint x="275" y="550" />
            </Array>
          </mxGeometry>
        </mxCell>
        <mxCell id="oi16Dz3fYDe41koma9XC-3" value="Sistem" style="swimlane;startSize=20;html=1;" vertex="1" parent="oi16Dz3fYDe41koma9XC-1">
          <mxGeometry x="370" y="20" width="255" height="920" as="geometry" />
        </mxCell>
        <mxCell id="oi16Dz3fYDe41koma9XC-18" value="Menampilkan data rumah sakit" style="rounded=1;whiteSpace=wrap;html=1;arcSize=40;fontColor=#000000;fillColor=default;strokeColor=default;" vertex="1" parent="oi16Dz3fYDe41koma9XC-3">
          <mxGeometry x="44.999999999999545" y="100" width="120" height="40" as="geometry" />
        </mxCell>
        <mxCell id="oi16Dz3fYDe41koma9XC-22" value="Menampilkan data fasilitas" style="rounded=1;whiteSpace=wrap;html=1;arcSize=40;fontColor=#000000;fillColor=default;strokeColor=default;" vertex="1" parent="oi16Dz3fYDe41koma9XC-3">
          <mxGeometry x="44.999999999999545" y="170" width="120" height="40" as="geometry" />
        </mxCell>
        <mxCell id="oi16Dz3fYDe41koma9XC-39" value="Menampilkan form tambah data" style="rounded=1;whiteSpace=wrap;html=1;arcSize=40;fontColor=#000000;fillColor=default;strokeColor=default;" vertex="1" parent="oi16Dz3fYDe41koma9XC-3">
          <mxGeometry x="44.999999999999545" y="255" width="120" height="40" as="geometry" />
        </mxCell>
        <mxCell id="oi16Dz3fYDe41koma9XC-42" style="edgeStyle=orthogonalEdgeStyle;rounded=0;orthogonalLoop=1;jettySize=auto;html=1;" edge="1" parent="oi16Dz3fYDe41koma9XC-3" source="oi16Dz3fYDe41koma9XC-39" target="oi16Dz3fYDe41koma9XC-41">
          <mxGeometry relative="1" as="geometry">
            <Array as="points">
              <mxPoint x="105" y="300" />
              <mxPoint x="-90" y="300" />
            </Array>
          </mxGeometry>
        </mxCell>
        <mxCell id="oi16Dz3fYDe41koma9XC-50" value="" style="shape=line;html=1;strokeWidth=6;strokeColor=default;rotation=90;" vertex="1" parent="oi16Dz3fYDe41koma9XC-3">
          <mxGeometry y="400" width="70" height="10" as="geometry" />
        </mxCell>
        <mxCell id="oi16Dz3fYDe41koma9XC-90" style="edgeStyle=orthogonalEdgeStyle;rounded=0;orthogonalLoop=1;jettySize=auto;html=1;exitX=1;exitY=0.5;exitDx=0;exitDy=0;" edge="1" parent="oi16Dz3fYDe41koma9XC-3" source="oi16Dz3fYDe41koma9XC-54">
          <mxGeometry relative="1" as="geometry">
            <mxPoint x="204" y="430" as="sourcePoint" />
            <mxPoint x="139.99999999999955" y="895" as="targetPoint" />
            <Array as="points">
              <mxPoint x="234" y="430" />
              <mxPoint x="234" y="895" />
            </Array>
          </mxGeometry>
        </mxCell>
        <mxCell id="oi16Dz3fYDe41koma9XC-54" value="menampilkan notif berhasil tambah data&amp;nbsp;" style="rounded=1;whiteSpace=wrap;html=1;arcSize=40;fontColor=#000000;fillColor=default;strokeColor=default;" vertex="1" parent="oi16Dz3fYDe41koma9XC-3">
          <mxGeometry x="60" y="410" width="120" height="40" as="geometry" />
        </mxCell>
        <mxCell id="oi16Dz3fYDe41koma9XC-58" style="edgeStyle=orthogonalEdgeStyle;rounded=0;orthogonalLoop=1;jettySize=auto;html=1;entryX=1;entryY=0.5;entryDx=0;entryDy=0;" edge="1" parent="oi16Dz3fYDe41koma9XC-3" source="oi16Dz3fYDe41koma9XC-55" target="oi16Dz3fYDe41koma9XC-22">
          <mxGeometry relative="1" as="geometry">
            <Array as="points">
              <mxPoint x="200" y="380" />
              <mxPoint x="200" y="190" />
            </Array>
          </mxGeometry>
        </mxCell>
        <mxCell id="oi16Dz3fYDe41koma9XC-55" value="Menyimpan data" style="rounded=1;whiteSpace=wrap;html=1;arcSize=40;fontColor=#000000;fillColor=default;strokeColor=default;" vertex="1" parent="oi16Dz3fYDe41koma9XC-3">
          <mxGeometry x="60" y="360" width="120" height="40" as="geometry" />
        </mxCell>
        <mxCell id="oi16Dz3fYDe41koma9XC-56" value="" style="endArrow=classic;html=1;rounded=0;entryX=0;entryY=0.5;entryDx=0;entryDy=0;exitX=0.133;exitY=0.16;exitDx=0;exitDy=0;exitPerimeter=0;" edge="1" parent="oi16Dz3fYDe41koma9XC-3" source="oi16Dz3fYDe41koma9XC-50" target="oi16Dz3fYDe41koma9XC-55">
          <mxGeometry width="50" height="50" relative="1" as="geometry">
            <mxPoint x="-50.000000000000455" y="460" as="sourcePoint" />
            <mxPoint x="-4.547473508864641e-13" y="410" as="targetPoint" />
          </mxGeometry>
        </mxCell>
        <mxCell id="oi16Dz3fYDe41koma9XC-59" value="Menampilkan form edit data" style="rounded=1;whiteSpace=wrap;html=1;arcSize=40;fontColor=#000000;fillColor=default;strokeColor=default;" vertex="1" parent="oi16Dz3fYDe41koma9XC-3">
          <mxGeometry x="67.49999999999955" y="480" width="120" height="40" as="geometry" />
        </mxCell>
        <mxCell id="oi16Dz3fYDe41koma9XC-72" style="edgeStyle=orthogonalEdgeStyle;rounded=0;orthogonalLoop=1;jettySize=auto;html=1;exitX=1;exitY=0.5;exitDx=0;exitDy=0;" edge="1" parent="oi16Dz3fYDe41koma9XC-3" source="oi16Dz3fYDe41koma9XC-63">
          <mxGeometry relative="1" as="geometry">
            <mxPoint x="34.999999999999545" y="625" as="targetPoint" />
            <mxPoint y="625" as="sourcePoint" />
          </mxGeometry>
        </mxCell>
        <mxCell id="oi16Dz3fYDe41koma9XC-73" value="" style="shape=line;html=1;strokeWidth=6;strokeColor=default;rotation=90;" vertex="1" parent="oi16Dz3fYDe41koma9XC-3">
          <mxGeometry x="5" y="620" width="70" height="10" as="geometry" />
        </mxCell>
        <mxCell id="oi16Dz3fYDe41koma9XC-89" style="edgeStyle=orthogonalEdgeStyle;rounded=0;orthogonalLoop=1;jettySize=auto;html=1;entryX=1;entryY=0.5;entryDx=0;entryDy=0;" edge="1" parent="oi16Dz3fYDe41koma9XC-3" source="oi16Dz3fYDe41koma9XC-74" target="oi16Dz3fYDe41koma9XC-87">
          <mxGeometry relative="1" as="geometry">
            <Array as="points">
              <mxPoint x="210" y="650" />
              <mxPoint x="210" y="895" />
            </Array>
          </mxGeometry>
        </mxCell>
        <mxCell id="oi16Dz3fYDe41koma9XC-74" value="menampilkan notif berhasil ubah data&amp;nbsp;" style="rounded=1;whiteSpace=wrap;html=1;arcSize=40;fontColor=#000000;fillColor=default;strokeColor=default;" vertex="1" parent="oi16Dz3fYDe41koma9XC-3">
          <mxGeometry x="65" y="630" width="120" height="40" as="geometry" />
        </mxCell>
        <mxCell id="oi16Dz3fYDe41koma9XC-79" style="edgeStyle=orthogonalEdgeStyle;rounded=0;orthogonalLoop=1;jettySize=auto;html=1;entryX=1;entryY=0.5;entryDx=0;entryDy=0;" edge="1" parent="oi16Dz3fYDe41koma9XC-3" source="oi16Dz3fYDe41koma9XC-75" target="oi16Dz3fYDe41koma9XC-22">
          <mxGeometry relative="1" as="geometry">
            <Array as="points">
              <mxPoint x="200" y="600" />
              <mxPoint x="200" y="190" />
            </Array>
          </mxGeometry>
        </mxCell>
        <mxCell id="oi16Dz3fYDe41koma9XC-75" value="Menyimpan data" style="rounded=1;whiteSpace=wrap;html=1;arcSize=40;fontColor=#000000;fillColor=default;strokeColor=default;" vertex="1" parent="oi16Dz3fYDe41koma9XC-3">
          <mxGeometry x="65" y="580" width="120" height="40" as="geometry" />
        </mxCell>
        <mxCell id="oi16Dz3fYDe41koma9XC-76" value="" style="endArrow=classic;html=1;rounded=0;entryX=0;entryY=0.5;entryDx=0;entryDy=0;exitX=0.133;exitY=0.16;exitDx=0;exitDy=0;exitPerimeter=0;" edge="1" parent="oi16Dz3fYDe41koma9XC-3" source="oi16Dz3fYDe41koma9XC-73" target="oi16Dz3fYDe41koma9XC-75">
          <mxGeometry width="50" height="50" relative="1" as="geometry">
            <mxPoint x="-45.000000000000455" y="680" as="sourcePoint" />
            <mxPoint x="4.999999999999545" y="630" as="targetPoint" />
          </mxGeometry>
        </mxCell>
        <mxCell id="oi16Dz3fYDe41koma9XC-77" value="" style="endArrow=classic;html=1;rounded=0;exitX=0.87;exitY=0.24;exitDx=0;exitDy=0;exitPerimeter=0;" edge="1" parent="oi16Dz3fYDe41koma9XC-3" source="oi16Dz3fYDe41koma9XC-73">
          <mxGeometry width="50" height="50" relative="1" as="geometry">
            <mxPoint x="-45.000000000000455" y="680" as="sourcePoint" />
            <mxPoint x="64.99999999999955" y="650" as="targetPoint" />
          </mxGeometry>
        </mxCell>
        <mxCell id="oi16Dz3fYDe41koma9XC-81" value="Menampilkan tombol hapus data" style="rounded=1;whiteSpace=wrap;html=1;arcSize=40;fontColor=#000000;fillColor=default;strokeColor=default;" vertex="1" parent="oi16Dz3fYDe41koma9XC-3">
          <mxGeometry x="65" y="690" width="120" height="40" as="geometry" />
        </mxCell>
        <mxCell id="oi16Dz3fYDe41koma9XC-94" value="" style="edgeStyle=orthogonalEdgeStyle;rounded=0;orthogonalLoop=1;jettySize=auto;html=1;" edge="1" parent="oi16Dz3fYDe41koma9XC-3" source="oi16Dz3fYDe41koma9XC-83" target="oi16Dz3fYDe41koma9XC-91">
          <mxGeometry relative="1" as="geometry" />
        </mxCell>
        <mxCell id="oi16Dz3fYDe41koma9XC-83" value="menghapus data" style="rounded=1;whiteSpace=wrap;html=1;arcSize=40;fontColor=#000000;fillColor=default;strokeColor=default;" vertex="1" parent="oi16Dz3fYDe41koma9XC-3">
          <mxGeometry x="65" y="750" width="120" height="40" as="geometry" />
        </mxCell>
        <mxCell id="oi16Dz3fYDe41koma9XC-87" value="" style="ellipse;html=1;shape=endState;fillColor=#000000;strokeColor=#ff0000;" vertex="1" parent="oi16Dz3fYDe41koma9XC-3">
          <mxGeometry x="109.99999999999955" y="880" width="30" height="30" as="geometry" />
        </mxCell>
        <mxCell id="oi16Dz3fYDe41koma9XC-95" value="" style="edgeStyle=orthogonalEdgeStyle;rounded=0;orthogonalLoop=1;jettySize=auto;html=1;" edge="1" parent="oi16Dz3fYDe41koma9XC-3" source="oi16Dz3fYDe41koma9XC-91" target="oi16Dz3fYDe41koma9XC-87">
          <mxGeometry relative="1" as="geometry" />
        </mxCell>
        <mxCell id="oi16Dz3fYDe41koma9XC-91" value="menampilkan notif berhasil hapus data&amp;nbsp;" style="rounded=1;whiteSpace=wrap;html=1;arcSize=40;fontColor=#000000;fillColor=default;strokeColor=default;" vertex="1" parent="oi16Dz3fYDe41koma9XC-3">
          <mxGeometry x="65" y="820" width="120" height="40" as="geometry" />
        </mxCell>
        <mxCell id="oi16Dz3fYDe41koma9XC-96" style="edgeStyle=orthogonalEdgeStyle;rounded=0;orthogonalLoop=1;jettySize=auto;html=1;entryX=1;entryY=0.25;entryDx=0;entryDy=0;exitX=0.5;exitY=1;exitDx=0;exitDy=0;" edge="1" parent="oi16Dz3fYDe41koma9XC-3" source="oi16Dz3fYDe41koma9XC-62">
          <mxGeometry relative="1" as="geometry">
            <mxPoint x="-151.27515151515195" y="650.0000000000002" as="sourcePoint" />
            <mxPoint x="166.23999999999955" y="190" as="targetPoint" />
            <Array as="points">
              <mxPoint x="-151" y="640" />
              <mxPoint x="-151" y="680" />
              <mxPoint x="221" y="680" />
              <mxPoint x="221" y="190" />
            </Array>
          </mxGeometry>
        </mxCell>
        <mxCell id="oi16Dz3fYDe41koma9XC-82" style="edgeStyle=orthogonalEdgeStyle;rounded=0;orthogonalLoop=1;jettySize=auto;html=1;entryX=0;entryY=0.5;entryDx=0;entryDy=0;" edge="1" parent="oi16Dz3fYDe41koma9XC-1" source="oi16Dz3fYDe41koma9XC-28" target="oi16Dz3fYDe41koma9XC-81">
          <mxGeometry relative="1" as="geometry">
            <Array as="points">
              <mxPoint x="75" y="730" />
            </Array>
          </mxGeometry>
        </mxCell>
        <mxCell id="oi16Dz3fYDe41koma9XC-85" style="edgeStyle=orthogonalEdgeStyle;rounded=0;orthogonalLoop=1;jettySize=auto;html=1;entryX=0;entryY=0.5;entryDx=0;entryDy=0;" edge="1" parent="oi16Dz3fYDe41koma9XC-1" source="oi16Dz3fYDe41koma9XC-84" target="oi16Dz3fYDe41koma9XC-83">
          <mxGeometry relative="1" as="geometry" />
        </mxCell>
        <mxCell id="oi16Dz3fYDe41koma9XC-86" style="edgeStyle=orthogonalEdgeStyle;rounded=0;orthogonalLoop=1;jettySize=auto;html=1;entryX=0.5;entryY=0;entryDx=0;entryDy=0;" edge="1" parent="oi16Dz3fYDe41koma9XC-1" source="oi16Dz3fYDe41koma9XC-81" target="oi16Dz3fYDe41koma9XC-84">
          <mxGeometry relative="1" as="geometry">
            <Array as="points">
              <mxPoint x="495" y="760" />
              <mxPoint x="258" y="760" />
            </Array>
          </mxGeometry>
        </mxCell>
        <mxCell id="oi16Dz3fYDe41koma9XC-33" value="" style="endArrow=classic;html=1;rounded=0;entryX=0.443;entryY=-0.014;entryDx=0;entryDy=0;entryPerimeter=0;" edge="1" parent="1" target="oi16Dz3fYDe41koma9XC-28">
          <mxGeometry width="50" height="50" relative="1" as="geometry">
            <mxPoint x="290" y="410" as="sourcePoint" />
            <mxPoint x="300" y="370" as="targetPoint" />
          </mxGeometry>
        </mxCell>
        <mxCell id="oi16Dz3fYDe41koma9XC-34" value="" style="endArrow=classic;html=1;rounded=0;entryX=0.447;entryY=0;entryDx=0;entryDy=0;entryPerimeter=0;" edge="1" parent="1" target="oi16Dz3fYDe41koma9XC-27">
          <mxGeometry width="50" height="50" relative="1" as="geometry">
            <mxPoint x="390" y="410" as="sourcePoint" />
            <mxPoint x="300" y="370" as="targetPoint" />
          </mxGeometry>
        </mxCell>
        <mxCell id="oi16Dz3fYDe41koma9XC-36" value="" style="endArrow=none;html=1;rounded=0;entryX=0.461;entryY=0.997;entryDx=0;entryDy=0;entryPerimeter=0;" edge="1" parent="1" target="oi16Dz3fYDe41koma9XC-22">
          <mxGeometry width="50" height="50" relative="1" as="geometry">
            <mxPoint x="690" y="400" as="sourcePoint" />
            <mxPoint x="530" y="430" as="targetPoint" />
          </mxGeometry>
        </mxCell>
        <mxCell id="oi16Dz3fYDe41koma9XC-37" value="" style="endArrow=none;html=1;rounded=0;" edge="1" parent="1">
          <mxGeometry width="50" height="50" relative="1" as="geometry">
            <mxPoint x="390" y="400" as="sourcePoint" />
            <mxPoint x="690" y="400" as="targetPoint" />
          </mxGeometry>
        </mxCell>
        <mxCell id="oi16Dz3fYDe41koma9XC-38" value="" style="endArrow=none;html=1;rounded=0;" edge="1" parent="1">
          <mxGeometry width="50" height="50" relative="1" as="geometry">
            <mxPoint x="390" y="410" as="sourcePoint" />
            <mxPoint x="390" y="400" as="targetPoint" />
          </mxGeometry>
        </mxCell>
        <mxCell id="oi16Dz3fYDe41koma9XC-46" value="" style="endArrow=classic;html=1;rounded=0;entryX=0.523;entryY=-0.027;entryDx=0;entryDy=0;entryPerimeter=0;" edge="1" parent="1" target="oi16Dz3fYDe41koma9XC-43">
          <mxGeometry width="50" height="50" relative="1" as="geometry">
            <mxPoint x="440" y="540" as="sourcePoint" />
            <mxPoint x="590" y="520" as="targetPoint" />
          </mxGeometry>
        </mxCell>
        <mxCell id="oi16Dz3fYDe41koma9XC-47" value="" style="endArrow=classic;html=1;rounded=0;entryX=0.632;entryY=0.017;entryDx=0;entryDy=0;entryPerimeter=0;" edge="1" parent="1" target="oi16Dz3fYDe41koma9XC-44">
          <mxGeometry width="50" height="50" relative="1" as="geometry">
            <mxPoint x="550" y="540" as="sourcePoint" />
            <mxPoint x="590" y="520" as="targetPoint" />
          </mxGeometry>
        </mxCell>
        <mxCell id="oi16Dz3fYDe41koma9XC-48" value="" style="endArrow=none;html=1;rounded=0;entryX=0.553;entryY=1.057;entryDx=0;entryDy=0;entryPerimeter=0;" edge="1" parent="1" target="oi16Dz3fYDe41koma9XC-41">
          <mxGeometry width="50" height="50" relative="1" as="geometry">
            <mxPoint x="500" y="540" as="sourcePoint" />
            <mxPoint x="590" y="520" as="targetPoint" />
          </mxGeometry>
        </mxCell>
        <mxCell id="oi16Dz3fYDe41koma9XC-57" value="" style="endArrow=classic;html=1;rounded=0;exitX=0.87;exitY=0.24;exitDx=0;exitDy=0;exitPerimeter=0;" edge="1" parent="1" source="oi16Dz3fYDe41koma9XC-50">
          <mxGeometry width="50" height="50" relative="1" as="geometry">
            <mxPoint x="540" y="630" as="sourcePoint" />
            <mxPoint x="650" y="600" as="targetPoint" />
          </mxGeometry>
        </mxCell>
        <mxCell id="oi16Dz3fYDe41koma9XC-71" value="" style="endArrow=none;html=1;rounded=0;entryX=0.5;entryY=1;entryDx=0;entryDy=0;" edge="1" parent="1" target="oi16Dz3fYDe41koma9XC-61">
          <mxGeometry width="50" height="50" relative="1" as="geometry">
            <mxPoint x="495" y="760" as="sourcePoint" />
            <mxPoint x="500" y="720" as="targetPoint" />
          </mxGeometry>
        </mxCell>
      </root>
    </mxGraphModel>
  </diagram>
</mxfile>
